<svg xmlns="http://www.w3.org/2000/svg" xmlns:xlink="http://www.w3.org/1999/xlink" width="64" height="64" viewBox="0 0 64 64">
  <defs>
    <linearGradient id="linear-gradient" x1="0.174" y1="0.175" x2="0.813" y2="0.873" gradientUnits="objectBoundingBox">
      <stop offset="0" stop-color="#90d1fe"/>
      <stop offset="1" stop-color="#239df3"/>
    </linearGradient>
  </defs>
  <g id="Group_22" data-name="Group 22" transform="translate(-120 113)">
    <circle id="Ellipse_21" data-name="Ellipse 21" cx="33" cy="32" r="28" transform="translate(120 -113)" fill="url(#linear-gradient)"/>
    <g id="Group_11" data-name="Group 11" transform="translate(513 -137)">
      <path id="Exclusion_1" data-name="Exclusion 1" 
      d="M22.7 19l-9.1-9.1c.9-2.3.4-5-1.5-6.9-2-2-5-2.4-7.4-1.3L9 6 6 9 1.6 4.7C.4 7.1.9 
  10.1 2.9 12.1c1.9 1.9 4.6 2.4 6.9 1.5l9.1 9.1c.4.4 1 .4 1.4 0l2.3-2.3c.5-.4.5-1.1.1-1.4z" transform="translate(-371 43)" fill="#fff"/>
   
  
    </g>
  </g>
</svg>
