<svg xmlns="http://www.w3.org/2000/svg" xmlns:xlink="http://www.w3.org/1999/xlink" width="64" height="64" viewBox="0 0 64 64">
  <defs>
    <linearGradient id="linear-gradient" x1="0.174" y1="0.175" x2="0.813" y2="0.873" gradientUnits="objectBoundingBox">
      <stop offset="0" stop-color="#e16ef5"/>
      <stop offset="1" stop-color="#bd6ef5"/>
    </linearGradient>
  </defs>
  <g id="Group_22" data-name="Group 22" transform="translate(-120 113)">
    <circle id="Ellipse_21" data-name="Ellipse 21" cx="33.5" cy="32" r="28" transform="translate(120 -113)" fill="url(#linear-gradient)"/>
    <g id="Group_11" data-name="Group 11" transform="translate(513 -137)">
      <path id="Exclusion_1" data-name="Exclusion 1" 
      d="M12,3L4,9v12h16V9L12,3z M12.5,12.5c0,0.83-0.67,1.5-1.5,1.5v4h-1v-4c-0.83,0-1.5-0.67-1.5-1.5v-3h1v3H10v-3h1v3h0.5v-3h1 V12.5z M15,18h-1v-3.5h-1v-3c0-1.1,0.9-2,2-2V18z" transform="translate(-371 43)" fill="#fff"/>
   
  
    </g>
  </g>
</svg>
