<svg xmlns="http://www.w3.org/2000/svg" xmlns:xlink="http://www.w3.org/1999/xlink" width="64" height="64" viewBox="0 0 64 64">
  <defs>
    <linearGradient id="linear-gradient" x1="0.174" y1="0.175" x2="0.813" y2="0.873" gradientUnits="objectBoundingBox">
      <stop offset="0" stop-color="#eb8c34"/>
      <stop offset="1" stop-color="#eb34ae"/>
    </linearGradient>
  </defs>
  <g id="Group_22" data-name="Group 22" transform="translate(-120 113)">
    <circle id="Ellipse_21" data-name="Ellipse 21" cx="33" cy="32" r="28" transform="translate(120 -113)" fill="url(#linear-gradient)"/>
    <g id="Group_11" data-name="Group 11" transform="translate(513 -137)">
      <path id="Exclusion_1" data-name="Exclusion 1" 
      d="M12 4V1L8 5l4 4V6c3.31 0 6 2.69 6 6 0 
1.01-.25 1.97-.7 2.8l1.46 1.46C19.54 15.03 20 13.57 20 12c0-4.42-3.58-8-8-8zm0 
14c-3.31 0-6-2.69-6-6 0-1.01.25-1.97.7-2.8L5.24 7.74C4.46 8.97 4 10.43 4 
12c0 4.42 3.58 8 8 8v3l4-4-4-4v3z" transform="translate(-371 43)" fill="#fff"/>
   
  
    </g>
  </g>
</svg>
