<svg xmlns="http://www.w3.org/2000/svg" xmlns:xlink="http://www.w3.org/1999/xlink" width="64" height="64" viewBox="0 0 64 64">
  <defs>
    <linearGradient id="linear-gradient" x1="0.174" y1="0.175" x2="0.813" y2="0.873" gradientUnits="objectBoundingBox">
      <stop offset="0" stop-color="#ff8383"/>
      <stop offset="1" stop-color="#ff4b4b"/>
    </linearGradient>
  </defs>
  <g id="Group_22" data-name="Group 22" transform="translate(-120 113)">
    <circle id="Ellipse_21" data-name="Ellipse 21" cx="34" cy="32" r="28" transform="translate(120 -113)" fill="url(#linear-gradient)"/>
    <g id="Group_11" data-name="Group 11" transform="translate(513 -137)">
      <path id="Exclusion_1" data-name="Exclusion 1" d="M19 3H5c-1.1 0-1.99.9-1.99 2L3 19c0 1.1.9 2 2 2h14c1.1 0 2-.9 2-2V5c0-1.1-.9-2-2-2zm-1 11h-4v4h-4v-4H6v-4h4V6h4v4h4v4z" transform="translate(-371 43)" fill="#fff"/>
   
  
    </g>
  </g>
</svg>
